# xmcd CD database file
#
# Track frame offsets:
#	150
#	13122
#	26427
#	41162
#	57302
#	73647
#	90670
#	106610
#	120267
#	139487
#	155205
#	170937
#
# Disc length: 2533 seconds
#
# Revision: 3
# Processed by: cddbd v1.5.1PL0 Copyright (c) Steve Scherf et al.
# Submitted via: CDex 1.51
#
DISCID=a509e30c
DTITLE=Talk Show - Talk Show
DYEAR=1997
DGENRE=Rock
TTITLE0=Ring Twice
TTITLE1=Hello Hello
TTITLE2=Everybody Loves My Car
TTITLE3=Peeling An Orange
TTITLE4=So Long
TTITLE5=Wash Me Down
TTITLE6=End Of The World
TTITLE7=John
TTITLE8=Behind
TTITLE9=Morning Girl
TTITLE10=Hide
TTITLE11=Fill The Fields
EXTD=YEAR: 1997
EXTT0=
EXTT1=
EXTT2=
EXTT3=
EXTT4=
EXTT5=
EXTT6=
EXTT7=
EXTT8=
EXTT9=
EXTT10=
EXTT11=
PLAYORDER=
